# xmcd
#
# Track frame offsets:
#	150
#	17021
#	32786
#	48161
#	62534
#	76312
#	87484
#	101856
#	117643
#	132226
#	148799
#	161416
#	178724
#	188401
#	205386
#	221522
#	243091
#	257703
#	271758
#	284995
#
# Disc length: 4002 seconds
#
# Revision: 2
# Processed by: cddbd v1.5.2PL0 Copyright (c) Steve Scherf et al.
# Submitted via: audiograbber 1.83.01
#
DISCID=250fa014
DTITLE=ΔΙΑΦΟΡΟΙ - Όλα τα ρεμπέτικα Νο4
DYEAR=1900
DGENRE=
TTITLE0=ΣΤΕΛΙΟΣ ΚΑΖΑΝΤΖΙΔΗΣ - Καρδιά παραπονιάρα
TTITLE1=ΣΩΤΗΡΙΑ ΜΠΕΛΛΟΥ - Πριν το χάραμα μονάχος
TTITLE2=ΣΠΥΡΟΣ ΖΑΓΟΡΑΙΟΣ - Όσοι έχουνε πολλά λεφτά
TTITLE3=ΓΛΥΚΕΡΙΑ - Τι σε μέλει εσένα
TTITLE4=ΜΠΑΜΠΗΣ ΓΚΟΛΕΣ - Μάγισσες φέρτε βότανα
TTITLE5=ΠΟΛΥ ΠΑΝΟΥ - Κάτω στο Πασαλιμάνι
TTITLE6=ΑΓΑΘΩΝΑΣ ΙΑΚΩΒΙΔΗΣ - Φέρτε πρέζα να πρεζάρω
TTITLE7=ΜΑΡΙΩ - Μια γυναίκα, δυο άντρες
TTITLE8=ΜΙΧΑΛΗΣ ΔΑΣΚΑΛΑΚΗΣ - Σε διώξαν απ' την κοκκινιά
TTITLE9=ΑΠΟΔΗΜΗ ΚΟΜΠΑΝΙΑ - Το παράπονο του ντερβίση
TTITLE10=ΓΙΩΡΓΟΣ ΜΟΥΦΛΟΥΖΕΛΗΣ - Βάρκα μου μπογιατισμένη
TTITLE11=ΛΙΖΕΤΑ ΚΑΛΗΜΕΡΗ - Κουτσαβάκι
TTITLE12=ΛΟΥΚΑΣ ΝΤΑΡΑΛΑΣ - Κάτσε καλά
TTITLE13=ΚΑΙΤΗ ΝΤΑΛΗ - Το παιδί του δρόμου
TTITLE14=ΜΙΧΑΛΗΣ ΓΕΝΙΤΣΑΡΗΣ - Ωραία θεσσαλονικιά
TTITLE15=ΓΙΩΡΓΟΣ ΞΗΝΤΑΡΗΣ - Γκιουλ Τζαμάλ
TTITLE16=ΣΤΕΛΛΑΚΗΣ ΠΕΡΠΙΝΙΑΔΗΣ - Λιώνω σαν κερί
TTITLE17=ΓΙΑΝΝΗΣ ΛΕΜΠΕΣΗΣ - Απέναντι στο μιναρέ
TTITLE18=ΜΑΡΙΚΑ ΝΙΝΟΥ - Καβουράκια
TTITLE19=ΣΤΡΑΤΟΣ ΠΑΓΙΟΥΜΤΖΗΣ - Ο γάμος του Τσιτσάνη
EXTD=
EXTT0=
EXTT1=
EXTT2=
EXTT3=
EXTT4=
EXTT5=
EXTT6=
EXTT7=
EXTT8=
EXTT9=
EXTT10=
EXTT11=
EXTT12=
EXTT13=
EXTT14=
EXTT15=
EXTT16=
EXTT17=
EXTT18=
EXTT19=
PLAYORDER=
